<?xml version="1.0" standalone="no"?>
<!DOCTYPE svg PUBLIC "-//W3C//DTD SVG 20010904//EN"
 "http://www.w3.org/TR/2001/REC-SVG-20010904/DTD/svg10.dtd">
<svg version="1.0" xmlns="http://www.w3.org/2000/svg"
 width="100.000000pt" height="133.000000pt" viewBox="0 0 100.000000 133.000000"
 preserveAspectRatio="xMidYMid meet">

<g transform="translate(0.000000,133.000000) scale(0.100000,-0.100000)"
fill="#000000" stroke="none">
<path d="M380 1314 c-220 -58 -380 -260 -380 -477 0 -139 121 -380 338 -673
98 -134 123 -157 162 -157 39 0 64 23 162 157 217 293 338 534 338 673 0 124
-55 249 -149 344 -127 126 -306 177 -471 133z m186 -333 c98 -45 128 -161 64
-250 -30 -43 -69 -61 -130 -61 -61 0 -100 18 -130 61 -64 89 -34 205 64 250
52 23 80 23 132 0z"/>
</g>
</svg>
